<svg id="Layer_2_1_" xmlns="http://www.w3.org/2000/svg" width="51.607" height="50.317" viewBox="0 0 51.607 50.317"><g id="Surfaces"><g id="UI_UX_Surface"><g id="Outline_no_shadow"><path id="Tracé_30" data-name="Tracé 30" d="M9.139,0h33.33a9.131,9.131,0,0,1,9.139,9.139v32.04a9.131,9.131,0,0,1-9.139,9.139H9.139A9.131,9.131,0,0,1,0,41.178V9.139A9.131,9.131,0,0,1,9.139,0Z" fill="#470137"></path></g></g></g><g id="Outlined_Mnemonics_Logos" transform="translate(7.518 11.028)"><g id="Xd"><path id="Tracé_31" data-name="Tracé 31" d="M54.58,60.323,48.129,70.967,55.01,82.256a.37.37,0,0,1,.043.258c-.022.086-.108.022-.237.043H49.892c-.344,0-.581-.022-.731-.237-.452-.9-.925-1.785-1.376-2.688-.452-.882-.946-1.785-1.462-2.709s-1.032-1.849-1.548-2.8h-.043c-.452.925-.946,1.849-1.441,2.774s-.989,1.849-1.462,2.752c-.495.9-.989,1.828-1.484,2.709-.086.215-.258.237-.495.237H35.12c-.086,0-.151.043-.151-.065a.3.3,0,0,1,.043-.237L41.7,71.332,35.184,60.3c-.065-.086-.086-.172-.043-.215A.249.249,0,0,1,35.356,60h4.881a1.269,1.269,0,0,1,.3.043.61.61,0,0,1,.215.194c.409.925.882,1.849,1.376,2.774.516.925,1.011,1.828,1.548,2.731.516.9.989,1.806,1.441,2.731h.043c.452-.946.925-1.871,1.4-2.774s.968-1.806,1.462-2.709.968-1.828,1.441-2.709a.366.366,0,0,1,.129-.215.41.41,0,0,1,.28-.043h4.537a.2.2,0,0,1,.237.151c.022.022-.021.108-.065.151Z" transform="translate(-34.961 -58.126)" fill="#ff61f6"></path><path id="Tracé_32" data-name="Tracé 32" d="M139.35,76.167a10.69,10.69,0,0,1-4.623-.968,7.5,7.5,0,0,1-3.247-2.924,9.3,9.3,0,0,1-1.183-4.9,8.831,8.831,0,0,1,1.183-4.537A8.93,8.93,0,0,1,134.9,59.5a11,11,0,0,1,5.44-1.247,3.84,3.84,0,0,1,.452.021c.194.022.409.022.667.043V51.524c0-.151.064-.237.215-.237h4.365a.193.193,0,0,1,.215.151V71.952c0,.387.021.817.043,1.29.043.452.064.882.086,1.247a.349.349,0,0,1-.215.344,16.422,16.422,0,0,1-3.505,1.032A18.968,18.968,0,0,1,139.35,76.167Zm2.107-4.3V62.4a5.5,5.5,0,0,0-.581-.108c-.237-.021-.473-.043-.71-.043a5.3,5.3,0,0,0-2.43.559,4.821,4.821,0,0,0-1.828,1.591,4.767,4.767,0,0,0-.71,2.731,5.992,5.992,0,0,0,.366,2.215,4.2,4.2,0,0,0,.968,1.527,3.715,3.715,0,0,0,1.462.86,5.629,5.629,0,0,0,1.785.28c.323,0,.624-.021.9-.043A1.881,1.881,0,0,0,141.457,71.866Z" transform="translate(-109.796 -51.284)" fill="#ff61f6"></path></g></g></svg>