<?xml version="1.0" encoding="UTF-8"?>
<svg version="1.1" xmlns="http://www.w3.org/2000/svg" width="201" height="200">
<path d="M0 0 C9.66229962 9.44758185 15.85702315 22.10890499 16.0625 35.6875 C15.86765016 52.99016605 9.72031372 68.4428705 -1.1875 81.75 C-2.18716797 82.99523437 -2.18716797 82.99523437 -3.20703125 84.265625 C-13.36789512 96.25506734 -25.79881432 104.626035 -40.1875 110.75 C-40.8475 110.75 -41.5075 110.75 -42.1875 110.75 C-24.63319625 135.60494503 4.38358172 159.33696244 34.546875 166.24609375 C45.72687796 167.97123775 54.6907933 166.53042668 65.8125 163.75 C65.4825 153.19 65.1525 142.63 64.8125 131.75 C62.8325 135.05 60.8525 138.35 58.8125 141.75 C55.63302339 145.06477349 53.61468315 146.49667901 49.25 147.875 C45.8125 147.75 45.8125 147.75 42.9375 145.4375 C40.8125 142.75 40.8125 142.75 39.8125 140.75 C39.34199219 141.17152344 38.87148437 141.59304687 38.38671875 142.02734375 C37.76410156 142.57519531 37.14148438 143.12304688 36.5 143.6875 C35.88511719 144.23277344 35.27023438 144.77804688 34.63671875 145.33984375 C30.92793606 148.20680424 27.33284281 148.05135619 22.8125 147.75 C16.72994398 145.93590435 13.13028351 143.04311127 9.8125 137.75 C2.17378606 121.20756217 2.90423868 100.28212232 9.06640625 83.29296875 C12.75898193 75.1330808 17.09697097 70.65275733 25.375 67.3125 C30.70349326 66.44056474 34.27705333 66.67192042 38.75 69.8125 C39.430625 70.451875 40.11125 71.09125 40.8125 71.75 C41.8025 70.265 41.8025 70.265 42.8125 68.75 C46.50694071 68.33176143 49.06827245 68.44446935 52.51953125 69.86132812 C54.8125 71.75 54.8125 71.75 55.3359375 74.64648438 C55.26246094 76.47663086 55.26246094 76.47663086 55.1875 78.34375 C55.16679443 79.03303589 55.14608887 79.72232178 55.12475586 80.43249512 C55.07353465 81.99660152 55.0097861 83.56032907 54.93603516 85.12353516 C54.80234254 87.96595637 54.70205116 90.80842666 54.60546875 93.65234375 C54.37500266 100.18643738 54.09554982 106.71800798 53.8125 113.25 C53.71583918 115.53774748 53.61948282 117.82550785 53.5234375 120.11328125 C53.28996347 125.65900741 53.05274946 131.20456344 52.8125 136.75 C56.02707501 133.75144761 58.34767555 131.38387954 59.796875 127.2109375 C60.09207031 126.38335937 60.38726562 125.55578125 60.69140625 124.703125 C60.97886719 123.85234375 61.26632813 123.0015625 61.5625 122.125 C61.86542969 121.26648438 62.16835937 120.40796875 62.48046875 119.5234375 C65.10416318 112.16385904 65.10416318 112.16385904 66.01782227 104.45239258 C66.03776749 103.37149857 66.05771271 102.29060455 66.07826233 101.17695618 C66.09497482 100.01125595 66.11168732 98.84555573 66.12890625 97.64453125 C66.1600779 95.85301888 66.1600779 95.85301888 66.19187927 94.02531433 C66.25734276 90.20443557 66.3162451 86.38348724 66.375 82.5625 C66.41818824 79.97460214 66.46180263 77.38671135 66.50585938 74.79882812 C66.61302092 68.44929261 66.7147934 62.09968766 66.8125 55.75 C64.1725 55.75 61.5325 55.75 58.8125 55.75 C58.76995644 53.75045254 58.77169217 51.74958364 58.8125 49.75 C59.8125 48.75 59.8125 48.75 63.375 48.6875 C64.509375 48.708125 65.64375 48.72875 66.8125 48.75 C66.78893433 47.51080811 66.78893433 47.51080811 66.76489258 46.24658203 C66.71327263 43.13413888 66.67591378 40.02191642 66.64770508 36.90917969 C66.62548521 34.91847095 66.58733405 32.92796032 66.54882812 30.9375 C66.47396334 21.05534805 66.89888708 11.57184643 74.0859375 4.1015625 C77.13642759 1.71362229 79.94390441 0.7780333 83.8125 0.75 C87.98696561 1.48188683 91.53053684 2.63345144 94.75 5.4375 C98.39868718 13.37876032 98.02974996 21.15655724 97.8125 29.75 C96.554375 29.79125 95.29625 29.8325 94 29.875 C92.93845703 29.90980469 92.93845703 29.90980469 91.85546875 29.9453125 C89.8125 29.75 89.8125 29.75 86.8125 27.75 C86.42865491 24.81402461 86.208657 22.06972627 86.125 19.125 C86.09083984 18.32320312 86.05667969 17.52140625 86.02148438 16.6953125 C85.93893122 14.71403682 85.87404084 12.73203963 85.8125 10.75 C83.8325 11.245 83.8325 11.245 81.8125 11.75 C81.09064178 16.37143392 80.64686753 20.8846066 80.49609375 25.55859375 C80.45419922 26.79931641 80.41230469 28.04003906 80.36914062 29.31835938 C80.32982422 30.59517578 80.29050781 31.87199219 80.25 33.1875 C80.18522461 35.14333008 80.18522461 35.14333008 80.11914062 37.13867188 C80.01352527 40.34233758 79.91255361 43.54615578 79.8125 46.75 C85.7525 46.255 85.7525 46.255 91.8125 45.75 C91.4825 48.72 91.1525 51.69 90.8125 54.75 C84.8725 55.245 84.8725 55.245 78.8125 55.75 C78.81472061 57.34693192 78.81694122 58.94386383 78.81922913 60.58918762 C78.8394705 75.6134388 78.85453697 90.63768498 78.86431217 105.6619463 C78.86947154 113.38669698 78.87650743 121.11143749 78.88793945 128.83618164 C78.89789722 135.56795991 78.90435604 142.29973082 78.90658849 149.03151625 C78.90789374 152.59693067 78.91096786 156.16232403 78.91823006 159.7277317 C78.9262656 163.70496647 78.92649043 167.6821805 78.92602539 171.65942383 C78.92962067 172.84553253 78.93321594 174.03164124 78.93692017 175.25369263 C78.9355455 176.33482834 78.93417084 177.41596405 78.93275452 178.52986145 C78.93413721 179.94158741 78.93413721 179.94158741 78.93554783 181.38183308 C78.8125 183.75 78.8125 183.75 77.8125 186.75 C74.02678516 187.56652673 71.55959664 188.02022644 67.875 186.6875 C65.8125 184.75 65.8125 184.75 65.5 181.5625 C65.6546875 180.1703125 65.6546875 180.1703125 65.8125 178.75 C65.23242188 178.95496094 64.65234375 179.15992188 64.0546875 179.37109375 C62.88292969 179.77521484 62.88292969 179.77521484 61.6875 180.1875 C60.92179688 180.45433594 60.15609375 180.72117188 59.3671875 180.99609375 C41.4662689 186.27878074 23.12743275 181.38922674 6.9609375 173.328125 C-14.34881255 161.72551176 -30.29357807 143.22274456 -44.75 124.1875 C-45.2874585 123.48407471 -45.82491699 122.78064941 -46.37866211 122.0559082 C-46.87374268 121.39679443 -47.36882324 120.73768066 -47.87890625 120.05859375 C-48.32435791 119.46876709 -48.76980957 118.87894043 -49.22875977 118.27124023 C-50.1875 116.75 -50.1875 116.75 -50.1875 114.75 C-52.0128125 115.245 -52.0128125 115.245 -53.875 115.75 C-57.06135536 116.61409637 -59.88593345 116.84251325 -63.1875 116.75 C-63.17589844 117.66394531 -63.16429687 118.57789063 -63.15234375 119.51953125 C-63.03958746 133.2775603 -63.6162888 147.00599006 -64.1875 160.75 C-69.8125 161.875 -69.8125 161.875 -73.1875 160.75 C-74.87946504 157.36606992 -74.30736549 153.52522209 -74.28515625 149.8046875 C-74.2837413 148.9196756 -74.28232635 148.0346637 -74.28086853 147.12283325 C-74.2752614 144.29018809 -74.26270771 141.45762136 -74.25 138.625 C-74.24498592 136.70703239 -74.24042285 134.78906354 -74.23632812 132.87109375 C-74.22528966 128.16403218 -74.20802025 123.4570294 -74.1875 118.75 C-75.09113281 118.77320313 -75.99476562 118.79640625 -76.92578125 118.8203125 C-78.10527344 118.83835938 -79.28476563 118.85640625 -80.5 118.875 C-81.67175781 118.89820313 -82.84351563 118.92140625 -84.05078125 118.9453125 C-87.1875 118.75 -87.1875 118.75 -90.1875 116.75 C-89.8575 115.1 -89.5275 113.45 -89.1875 111.75 C-84.60533485 110.22261162 -79.99636509 110.14602418 -75.1875 109.75 C-74.8575 102.49 -74.5275 95.23 -74.1875 87.75 C-77.1575 87.09 -80.1275 86.43 -83.1875 85.75 C-91.29157259 82.32237586 -97.2106857 75.64282917 -100.5625 67.625 C-106.26624402 52.49767891 -103.19052987 35.08675724 -96.75 20.69140625 C-89.00228204 6.10632718 -77.50927556 -3.43443555 -62.1875 -9.25 C-61.31351563 -9.5903125 -60.43953125 -9.930625 -59.5390625 -10.28125 C-38.62958082 -16.90360783 -17.41707031 -12.29440257 0 0 Z M-85.3671875 18.51171875 C-94.41232249 29.63374096 -96.45389679 41.88414343 -95.1875 55.75 C-93.79408216 63.04440212 -90.20156524 67.33552274 -84.69921875 72.15625 C-81.65207545 74.08974062 -78.65677841 74.81560295 -75.1875 75.75 C-75.19495743 75.18481155 -75.20241486 74.61962311 -75.21009827 74.03730774 C-75.27897641 68.14798595 -75.28496813 62.26096697 -75.25463867 56.37133789 C-75.25155872 54.17436136 -75.26444994 51.97730153 -75.29370117 49.78051758 C-75.33301429 46.61902783 -75.31465754 43.46228608 -75.28515625 40.30078125 C-75.30973404 39.32039383 -75.33431183 38.34000641 -75.3596344 37.32991028 C-75.30086927 34.53285215 -75.15827903 32.37642247 -74.1875 29.75 C-70.13246351 26.06234277 -65.50015317 24.66873005 -60.1875 23.75 C-60.2596875 24.84570312 -60.331875 25.94140625 -60.40625 27.0703125 C-61.34493889 42.63146514 -61.28898464 58.16820515 -61.1875 73.75 C-52.99867771 72.31473203 -47.39983316 66.51267974 -42.37890625 60.1328125 C-41.1875 58.75 -41.1875 58.75 -39.1875 57.75 C-38.33399966 61.46443346 -38.02429452 64.94061938 -38 68.75 C-37.98582031 69.760625 -37.97164062 70.77125 -37.95703125 71.8125 C-38.20134835 74.9265078 -38.6819931 77.01444171 -40.1875 79.75 C-42.0859375 80.94140625 -42.0859375 80.94140625 -44.1875 81.75 C-44.77789062 82.06839844 -45.36828125 82.38679688 -45.9765625 82.71484375 C-51.22245741 85.49405191 -56.46938028 87.16163341 -62.1875 88.75 C-62.5175 95.02 -62.8475 101.29 -63.1875 107.75 C-46.32874904 105.64265613 -30.47680059 97.39413511 -19.3125 84.4375 C-6.74319656 68.27352053 -1.75984363 49.05891461 -3.1875 28.75 C-4.03982097 25.0777142 -5.34247857 22.02749149 -7.1875 18.75 C-7.62320313 17.97140625 -8.05890625 17.1928125 -8.5078125 16.390625 C-13.90622624 7.59976547 -20.62384601 1.99865389 -30.5 -0.9375 C-50.93644896 -3.31383127 -71.16516289 3.70596435 -85.3671875 18.51171875 Z M28.3125 75.6875 C18.44326885 87.77730816 17.66317169 106.74660616 18.8125 121.75 C19.83230669 128.7704084 20.79319838 134.4849322 25.8125 139.75 C28.76909873 140.58349951 28.76909873 140.58349951 31.8125 139.75 C36.4082238 136.32992647 38.38750299 132.17877003 39.8125 126.75 C40.29961457 122.83590382 40.41655751 118.9412164 40.5 115 C40.53053467 113.90905029 40.56106934 112.81810059 40.5925293 111.6940918 C40.65054354 109.46143739 40.70142914 107.22858615 40.74511719 104.99560547 C40.80823582 101.9553911 40.90493376 98.9179857 41.0078125 95.87890625 C41.04918224 94.10682319 41.08837212 92.33468741 41.125 90.5625 C41.15489014 89.75651367 41.18478027 88.95052734 41.21557617 88.12011719 C41.26801256 82.8358821 40.26545735 79.97170481 36.8125 75.75 C36.1525 75.09 35.4925 74.43 34.8125 73.75 C30.81229416 73.34161889 30.81229416 73.34161889 28.3125 75.6875 Z " fill="#FFFFFF" transform="translate(103.1875,12.25)"/>
</svg>
